<?xml version="1.0" encoding="utf-8"?>
<!-- Generator: Adobe Illustrator 22.0.0, SVG Export Plug-In . SVG Version: 6.00 Build 0)  -->
<svg version="1.1" id="Calque_1" xmlns="http://www.w3.org/2000/svg" xmlns:xlink="http://www.w3.org/1999/xlink" x="0px" y="0px"
	 viewBox="0 0 29.4 29.4" style="enable-background:new 0 0 29.4 29.4;" xml:space="preserve">
<path d="M13.7,3.7v2c-4.2,0.5-7.5,3.8-8,8h-2v2h2c0.5,4.2,3.8,7.5,8,8v2h2v-2c4.2-0.5,7.5-3.8,8-8h2v-2h-2c-0.5-4.2-3.8-7.5-8-8v-2
	H13.7z M14.7,7.7c3.9,0,7,3.1,7,7s-3.1,7-7,7s-7-3.1-7-7S10.8,7.7,14.7,7.7z"/>
</svg>
